<svg width="32" height="32" xmlns="http://www.w3.org/2000/svg">
 <title>file_type_light_json</title>

 <g>
  <title>Layer 1</title>
  <path stroke="null" id="svg_1" fill="#fff" d="m8.47654,15.21943a1.91136,1.91136 0 0 0 1.19327,-0.39446a1.81009,1.81009 0 0 0 0.61301,-1.03412a11.62125,11.62125 0 0 0 0.16296,-2.24186q0.00914,-1.58773 0.05711,-2.09184a3.98721,3.98721 0 0 1 0.31831,-1.28389a2.30354,2.30354 0 0 1 0.57493,-0.77521a2.31953,2.31953 0 0 1 0.87725,-0.44167a5.14926,5.14926 0 0 1 1.17576,-0.09519l0.53305,0l0,1.49254l-0.2947,0a1.78039,1.78039 0 0 0 -1.31206,0.35638a2.5891,2.5891 0 0 0 -0.32364,1.59306a27.45512,27.45512 0 0 1 -0.10433,3.14728a3.60494,3.60494 0 0 1 -0.58483,1.56869a3.47777,3.47777 0 0 1 -1.2976,0.98005a2.90055,2.90055 0 0 1 1.51691,1.33567a6.74765,6.74765 0 0 1 0.47061,2.9432q0,1.85425 0.03807,2.20835a1.33643,1.33643 0 0 0 0.3838,0.89933a2.0096,2.0096 0 0 0 1.21231,0.25663l0.2947,0l0,1.49482l-0.53305,0a4.30628,4.30628 0 0 1 -1.35014,-0.1523a2.26165,2.26165 0 0 1 -1.00823,-0.70819a2.55331,2.55331 0 0 1 -0.51858,-1.24124a18.40926,18.40926 0 0 1 -0.12565,-2.46269a12.54114,12.54114 0 0 0 -0.16296,-2.36522a1.83369,1.83369 0 0 0 -0.61301,-1.0364a1.89537,1.89537 0 0 0 -1.19327,-0.39903l0,-1.5527z"/>
  <path stroke="null" id="svg_2" fill="#fff" d="m23.58233,16.75401a1.85742,1.85742 0 0 0 -1.16938,0.39104a1.79697,1.79697 0 0 0 -0.60073,1.01565a12.29,12.29 0 0 0 -0.15821,2.32009a18.04061,18.04061 0 0 1 -0.12612,2.41338a2.50218,2.50218 0 0 1 -0.5082,1.21639a2.21636,2.21636 0 0 1 -0.98804,0.69401a4.22005,4.22005 0 0 1 -1.3231,0.14925l-0.52238,0l0,-1.46191l0.2888,0a1.96936,1.96936 0 0 0 1.18803,-0.25149a1.30967,1.30967 0 0 0 0.3776,-0.88505q0.03731,-0.34477 0.03731,-2.16413a6.61253,6.61253 0 0 1 0.46118,-2.88426a2.84247,2.84247 0 0 1 1.48653,-1.30743a3.40813,3.40813 0 0 1 -1.26863,-0.95968a3.53275,3.53275 0 0 1 -0.57312,-1.53728a26.90533,26.90533 0 0 1 -0.10224,-3.08425a2.53725,2.53725 0 0 0 -0.31716,-1.56116a1.74473,1.74473 0 0 0 -1.28579,-0.34925l-0.2888,0l0,-1.4634l0.52238,0a5.04615,5.04615 0 0 1 1.14923,0.09328a2.27308,2.27308 0 0 1 0.85744,0.43357a2.25741,2.25741 0 0 1 0.56342,0.75968a3.90737,3.90737 0 0 1 0.31193,1.25818q0.04627,0.49402 0.05597,2.04995a11.38853,11.38853 0 0 0 0.15821,2.1992a1.77384,1.77384 0 0 0 0.60073,1.01117a1.87309,1.87309 0 0 0 1.16938,0.38656l0.00373,1.51787z"/>
 </g>
</svg>